<svg width="36" height="36" viewBox="0 0 36 36" fill="none" xmlns="http://www.w3.org/2000/svg">
<path d="M21.4627 14.3841V14.3897C21.3514 14.3189 21.123 14.284 20.8361 14.284V21.5087C21.24 21.5087 21.492 21.4154 21.5865 21.2567C21.6799 21.1049 21.7271 20.6537 21.7271 19.9326V15.6317C21.7271 15.139 21.7215 14.8229 21.6799 14.6879C21.645 14.5416 21.5798 14.4415 21.4684 14.383L21.4627 14.3841ZM33.6206 -0.000126221H2.43113C1.8041 0.0361906 1.21168 0.299337 0.764366 0.740236C0.31705 1.18114 0.0453724 1.76969 0 2.39612L0 33.5676C0.08775 34.8805 1.0665 35.8817 2.33212 35.9931C2.35537 35.9976 2.379 35.9995 2.403 35.9987H33.669C34.3061 35.9348 34.897 35.6372 35.3276 35.1633C35.7583 34.6895 35.9982 34.0729 36.0011 33.4326V2.56487C35.9979 1.9169 35.7516 1.29373 35.311 0.818573C34.8705 0.343416 34.2676 0.050861 33.6217 -0.00125122L33.6206 -0.000126221ZM7.18987 23.437H4.33012V12.3917H7.18987V23.437ZM16.9976 23.437H14.5069V15.9782L13.4989 23.4314H11.718L10.6695 16.1425L10.6582 23.4314H8.16188V12.3917H11.8586C11.988 13.1714 12.0994 13.9622 12.204 14.7531L12.6079 17.5544L13.2761 12.3917H16.9965L16.9976 23.437ZM24.4631 20.1677C24.4631 21.1465 24.399 21.808 24.3045 22.1477C24.2327 22.454 24.0619 22.7281 23.8185 22.9274C23.5731 23.1324 23.2784 23.2697 22.9635 23.3256C22.6294 23.3897 22.1085 23.437 21.4346 23.437L21.429 23.4314H17.9719V12.3917H20.1105C21.4819 12.3917 22.284 12.4626 22.7644 12.5796C23.2504 12.7146 23.6261 12.9194 23.8837 13.213C24.1301 13.483 24.2944 13.816 24.3529 14.1794C24.4279 14.5319 24.465 15.2331 24.4643 16.2831L24.4631 20.1677ZM31.8814 20.8765C31.8814 21.5504 31.8105 22.0251 31.7464 22.3649C31.653 22.699 31.4539 22.9679 31.1366 23.2142C30.7969 23.4662 30.4155 23.5776 29.9644 23.5776C29.6359 23.5776 29.214 23.4842 28.9451 23.3729C28.6457 23.2133 28.3822 22.9939 28.1711 22.7282L28.0012 23.437H25.4227V12.3917L25.3935 12.3861H28.0946V15.9839C28.3166 15.7206 28.5705 15.5215 28.8562 15.3865C29.1874 15.2597 29.5389 15.1941 29.8935 15.193C30.2333 15.193 30.5674 15.2459 30.8835 15.3685C31.1411 15.4742 31.3639 15.6441 31.5394 15.8612C31.6744 16.0491 31.7621 16.2651 31.8094 16.4946C31.8499 16.6994 31.8735 17.1392 31.8735 17.7951V20.8776L31.8814 20.8765ZM28.6177 16.8051C28.4422 16.8051 28.3309 16.8692 28.2836 16.9862C28.2364 17.1089 28.1959 17.4194 28.1959 17.9234V20.8416C28.1959 21.3276 28.2364 21.6449 28.2836 21.7787C28.3136 21.8423 28.3621 21.8953 28.4227 21.9309C28.4833 21.9664 28.5533 21.9828 28.6234 21.9779C28.7989 21.9779 29.0272 21.907 29.0745 21.7664C29.1165 21.6209 29.1379 21.2849 29.1386 20.7584L29.1859 20.7527V17.9166C29.1859 17.4655 29.1622 17.155 29.0981 17.0144C29.0272 16.8625 28.8056 16.8029 28.6234 16.8029L28.6177 16.8051Z" fill="#FFC805"/>
</svg>

