<svg width="184" height="36" viewBox="0 0 184 36" fill="none" xmlns="http://www.w3.org/2000/svg">
<path d="M1.44886 9.52557V7.18182H17.8125V9.52557H10.9517V29H8.30966V9.52557H1.44886Z" fill="white"/>
<path d="M27.2841 7.18182V29H24.642V7.18182H27.2841Z" fill="white"/>
<path d="M80.642 29V7.18182H93.8097V9.52557H83.2841V16.8977H93.1278V19.2415H83.2841V26.6562H93.9801V29H80.642Z" fill="white"/>
<path d="M54 24L44.4737 7.5L63.5263 7.5L54 24Z" fill="#D9D9D9"/>
<path d="M65 13L74.5263 29.5H55.4737L65 13Z" fill="#D9D9D9"/>
<path d="M43 13L52.5263 29.5H33.4737L43 13Z" fill="#D9D9D9"/>
<path d="M109.994 7.18182H112.636V22.7784C112.636 24.1705 112.381 25.353 111.869 26.326C111.358 27.299 110.637 28.0376 109.707 28.5419C108.776 29.0462 107.679 29.2983 106.415 29.2983C105.222 29.2983 104.16 29.0817 103.229 28.6484C102.299 28.2081 101.567 27.5831 101.035 26.7734C100.502 25.9638 100.236 25.0014 100.236 23.8864H102.835C102.835 24.5043 102.988 25.044 103.293 25.5057C103.606 25.9602 104.032 26.3153 104.572 26.571C105.112 26.8267 105.726 26.9545 106.415 26.9545C107.175 26.9545 107.821 26.7947 108.354 26.4751C108.886 26.1555 109.291 25.6868 109.568 25.0689C109.852 24.4439 109.994 23.6804 109.994 22.7784V7.18182ZM132.249 7.18182H134.891V21.6278C134.891 23.1193 134.54 24.451 133.837 25.6229C133.141 26.7876 132.157 27.7074 130.886 28.3821C129.614 29.0497 128.123 29.3835 126.411 29.3835C124.7 29.3835 123.208 29.0497 121.937 28.3821C120.665 27.7074 119.678 26.7876 118.975 25.6229C118.279 24.451 117.931 23.1193 117.931 21.6278V7.18182H120.573V21.4148C120.573 22.4801 120.808 23.4283 121.276 24.2592C121.745 25.0831 122.413 25.733 123.279 26.2088C124.153 26.6776 125.197 26.9119 126.411 26.9119C127.626 26.9119 128.67 26.6776 129.543 26.2088C130.417 25.733 131.085 25.0831 131.546 24.2592C132.015 23.4283 132.249 22.4801 132.249 21.4148V7.18182ZM140.167 7.18182H143.321L150.736 25.2926H150.991L158.406 7.18182H161.559V29H159.088V12.4233H158.875L152.057 29H149.67L142.852 12.4233H142.639V29H140.167V7.18182ZM166.857 29V7.18182H174.229C175.941 7.18182 177.34 7.49077 178.426 8.10866C179.52 8.71946 180.33 9.54688 180.855 10.5909C181.381 11.6349 181.644 12.7997 181.644 14.0852C181.644 15.3707 181.381 16.5391 180.855 17.5902C180.337 18.6413 179.534 19.4794 178.448 20.1044C177.361 20.7223 175.969 21.0312 174.272 21.0312H168.988V18.6875H174.186C175.358 18.6875 176.299 18.4851 177.01 18.0803C177.72 17.6754 178.235 17.1286 178.554 16.4396C178.881 15.7436 179.044 14.9588 179.044 14.0852C179.044 13.2116 178.881 12.4304 178.554 11.7415C178.235 11.0526 177.716 10.5128 176.999 10.1222C176.282 9.72443 175.33 9.52557 174.144 9.52557H169.499V29H166.857Z" fill="white"/>
</svg>
